PathFileType	4	(X/Y/Z)	C:\Users\°ÂÌØÂü\Desktop\20210112\bx_y_5_1802-Unnamed.trc
DataRate	CameraRate	NumFrames	NumMarkers	Units	OrigDataRate	OrigDataStartFrame	OrigNumFrames
50.00	50.00	       4	0	mm	50.00	359	       478
Frame#	Time	
		

359	7.160	-546.29309	221.53499	496.40775	-703.89453	77.07145	212.41907	-444.04721	-62.23688	1218.32336	-758.06592	-89.50361	789.45776	-748.69971	283.85843	803.12292	-672.69757	219.10593	799.76501	-452.74799	277.87973	1221.90198				-578.76709	40.45061	562.94629	-571.46967	-20.39972	486.11703	-672.33600	53.58998	156.42384	-596.57031	263.83975	543.78479	-653.55237	265.14474	482.01758	-681.63904	-85.22692	658.96423	-667.08667	-68.96393	161.34975				-700.34686	148.72118	207.00146	-625.81934	-81.96691	157.21216	-761.64185	220.03098	207.12294	-882.54382	296.18176	144.71324	-620.95758	263.94125	587.61261	-601.28851	15.87800	166.78712	-559.82654	-44.61672	160.94891	-672.88171	173.92064	152.22804	-592.95032	224.16296	171.77046	-666.55524	298.15137	161.56590	-630.15033	307.37296	161.35020	-560.45782	265.09924	164.57790	-528.18506	304.27109	146.68633	-325.51227	108.27172	1486.84595	-620.38312	-68.14182	584.20374	-673.13269	-32.72948	788.20490	-517.74127	-72.36169	142.34618	-789.71075	166.16808	188.39828	-760.02649	-3.82232	208.51883	-788.75439	62.02127	179.01379	-614.38617	-63.67202	537.68005	-680.39526	-60.01746	471.79645	-876.23401	-78.82444	141.14412										-963.05695	97.31944	938.01288	
360	7.180	-547.66925	220.44225	497.82126	-704.07214	77.04772	212.33743	-447.13037	-63.68385	1233.93701	-755.66534	-89.80012	793.69940	-746.54510	282.89828	808.18347	-670.05817	218.26706	802.92975	-455.32657	277.42404	1236.99292							-573.25586	-19.41087	487.35184	-672.18695	53.62432	156.67590	-598.10193	263.06512	545.56128	-654.85797	264.40384	483.04056	-681.38971	-85.10458	662.32141	-667.09180	-69.32708	161.36218				-699.96661	148.32590	207.53371	-625.97260	-82.07764	157.09042	-761.60571	220.22160	207.45833	-882.81897	296.19931	144.64435	-621.71228	263.09384	589.97290	-601.31836	15.98084	166.86945	-559.90393	-44.72119	161.14815	-672.88171	173.92064	152.22804	-592.85980	224.18742	171.82568	-666.49158	298.07739	161.62468	-629.89008	307.37305	161.54443	-560.45782	265.09924	164.57790	-528.26404	304.55304	146.40900	-332.50192	107.48135	1504.58118	-622.29883	-67.01501	585.87634	-670.40912	-32.00344	790.63892	-517.67224	-72.19137	142.40842	-789.46112	166.45082	188.78896	-760.18414	-3.76117	208.43765	-788.75397	62.04127	178.78905	-615.82281	-62.60159	538.84595	-681.91162	-59.07939	472.69183	-875.97748	-78.88188	141.21204										-958.84680	97.26591	944.13800	
361	7.200	-548.52539	220.45143	499.51996	-704.28314	76.86891	212.52045	-450.80518	-65.30054	1248.97009	-752.63873	-89.46069	798.15100				-667.44965	217.46515	806.06989	-457.80881	277.52451	1252.02747							-575.07666	-18.71924	488.76910	-672.18872	53.41152	156.74934	-599.73553	261.62280	546.07129	-656.40485	263.76276	483.92038	-681.05505	-85.03041	665.68036	-667.30511	-69.11304	161.15332				-700.28204	148.43916	207.40308	-625.77448	-82.04076	156.95213	-761.60474	219.89067	207.37599	-882.47418	295.97089	144.53862	-623.22614	262.18350	592.22162	-601.42230	15.85398	166.90916	-559.93542	-44.58520	160.95157	-672.88171	173.92064	152.22804	-592.95721	224.20898	171.84523	-666.42798	298.00345	161.68346	-629.95465	307.44220	161.50233	-560.55243	265.20630	164.48573	-528.11536	304.45233	146.53067	-339.92947	106.87765	1522.39709	-623.01111	-66.86182	587.95911	-668.15973	-31.78440	793.58063	-517.54974	-72.37075	142.66296	-789.43121	166.29784	188.64967	-760.46912	-3.76826	208.15611	-788.83588	61.90952	178.90546	-617.76282	-61.97694	540.11029	-683.43427	-58.73263	473.12024	-876.11493	-78.94045	141.06699										-954.96039	96.82500	950.42358	
362	7.220	-551.63483	219.00453	499.70450	-703.88000	77.04642	212.10445	-453.05804	-68.00952	1264.55469	-750.25940	-89.78635	802.64276	-741.92145	280.89813	817.50226	-665.19019	216.98108	809.00488	-459.51602	277.41730	1266.70972							-577.38989	-18.30260	489.58893	-672.32275	53.58132	156.77008	-601.76410	260.76120	547.37921	-658.05298	263.34250	484.64413	-681.30469	-84.90949	668.30945	-666.65857	-69.30406	161.58751				-700.53503	148.54343	207.40598	-625.84509	-82.08268	157.03828	-761.78430	219.96678	207.15637	-882.60834	296.06894	144.52896	-624.52814	261.52560	594.05658	-601.35809	15.79760	166.96010	-559.83350	-44.68360	161.07056	-672.88171	173.92064	152.22804	-592.93262	224.32722	171.96729	-666.49493	298.01468	161.57114	-629.94727	307.39496	161.49205	-560.64063	265.26361	164.46812	-528.21149	304.33224	146.49052	-347.77902	105.81812	1539.89661	-624.61578	-65.93887	589.86029	-665.61719	-31.44465	796.11115	-517.65814	-72.31439	142.25323	-789.64825	166.35864	188.86182	-760.74988	-3.69067	207.89749	-788.96729	61.76361	178.67599	-619.46692	-60.85760	541.71588	-685.18378	-58.24472	473.92538	-876.08118	-78.94780	141.05923										-950.51520	96.43467	956.59424	
